<?xml version="1.0" standalone="no"?>
<!DOCTYPE svg PUBLIC "-//W3C//DTD SVG 20010904//EN"
 "http://www.w3.org/TR/2001/REC-SVG-20010904/DTD/svg10.dtd">
<svg version="1.0" xmlns="http://www.w3.org/2000/svg"
 width="1280.000000pt" height="831.000000pt" viewBox="0 0 1280.000000 831.000000"
 preserveAspectRatio="xMidYMid meet">
<metadata>
Created by potrace 1.15, written by Peter Selinger 2001-2017
</metadata>
<g transform="translate(0.000000,831.000000) scale(0.100000,-0.100000)"
fill="#000000" stroke="none">
<path d="M9770 8299 c-353 -40 -689 -175 -955 -384 -410 -323 -631 -784 -612
-1275 16 -397 166 -730 462 -1025 328 -328 736 -503 1235 -531 394 -22 853
111 1177 342 l23 16 -25 -56 c-61 -139 -38 -285 59 -373 28 -25 75 -57 104
-69 28 -13 52 -25 52 -27 0 -2 43 -210 95 -463 217 -1044 246 -1186 243 -1189
-2 -1 -491 197 -1088 441 -597 244 -1089 445 -1094 447 -4 1 8 35 28 75 30 59
38 88 43 152 6 74 4 84 -26 153 -27 61 -45 85 -101 135 -137 123 -371 219
-663 273 l-128 24 -761 853 c-491 551 -766 852 -777 850 -11 -2 -815 -1034
-1010 -1297 l-18 -24 -35 54 c-113 176 -421 309 -716 309 -134 0 -289 -38
-407 -98 -113 -57 -204 -151 -240 -247 -23 -62 -25 -79 -20 -145 6 -64 13 -86
52 -153 223 -384 987 -461 1296 -131 81 86 116 177 106 272 -4 37 -4 72 1 77
4 6 227 296 495 645 268 349 491 639 495 643 4 5 327 -351 719 -789 391 -439
709 -799 707 -802 -3 -2 -55 2 -118 9 -192 22 -786 16 -1058 -10 -1060 -103
-2088 -399 -2718 -783 -138 -84 -316 -220 -366 -280 l-35 -43 -24 25 c-14 14
-329 374 -702 800 -373 426 -685 779 -693 784 -11 6 -21 2 -36 -15 -12 -14
-282 -423 -601 -910 l-580 -886 -85 77 c-312 282 -844 492 -1185 467 -173 -13
-265 -73 -280 -183 -33 -245 472 -638 1001 -779 135 -36 220 -47 348 -46 134
1 210 24 272 83 35 34 42 47 48 93 6 57 -17 140 -56 197 -10 14 -18 29 -18 33
0 5 999 1535 1134 1737 l32 46 674 -769 c371 -424 681 -778 687 -787 10 -15 5
-32 -33 -104 -38 -74 -45 -98 -51 -165 -5 -71 -3 -84 24 -148 23 -55 45 -85
99 -137 38 -37 90 -77 116 -89 27 -12 48 -25 48 -29 0 -3 -12 -11 -27 -17 -22
-8 -2097 -1017 -3346 -1626 -196 -95 -231 -109 -248 -99 -10 7 -45 12 -77 12
-50 0 -68 -6 -123 -39 -170 -102 -290 -365 -309 -676 -23 -404 133 -725 355
-725 53 0 67 5 127 43 314 199 410 931 166 1265 l-48 67 57 29 c32 16 843 411
1803 878 l1744 848 136 -44 c291 -96 635 -139 1115 -138 371 0 649 21 1045 78
1148 167 2235 585 2635 1011 l60 64 1140 -465 c685 -280 1146 -464 1157 -460
10 3 18 13 18 23 0 10 -20 117 -45 237 -25 121 -95 458 -156 749 -60 292 -118
570 -129 620 -10 49 -17 91 -16 92 1 2 41 -2 88 -8 175 -21 436 25 653 116
384 161 666 444 689 691 6 63 4 79 -19 137 -84 210 -410 289 -795 194 -147
-36 -335 -110 -439 -174 -71 -42 -73 -43 -56 -16 128 194 199 362 246 583 29
137 32 387 5 529 -122 662 -664 1179 -1386 1325 -169 34 -409 44 -580 25z"/>
</g>
</svg>
